<svg width="43" height="43" viewBox="0 0 43 43" xmlns="http://www.w3.org/2000/svg">
  <path
    d="M10.7499 19.6188L8.95826 20.6042C8.5402 20.8431 8.09229 20.9028 7.61451 20.7833C7.13673 20.6639 6.7784 20.3952 6.53951 19.9771L2.95617 13.7063C2.71729 13.2882 2.65756 12.8403 2.77701 12.3625C2.89645 11.8847 3.1652 11.5264 3.58326 11.2875L13.8853 5.37501H17.0208C17.2895 5.37501 17.5063 5.45743 17.6711 5.62226C17.836 5.7871 17.9178 6.00329 17.9166 6.27085V7.16668C17.9166 8.1521 18.2678 8.99597 18.9701 9.6983C19.6724 10.4006 20.5157 10.7512 21.4999 10.75C22.4853 10.75 23.3292 10.3994 24.0315 9.6983C24.7339 8.99717 25.0845 8.15329 25.0833 7.16668V6.27085C25.0833 6.0021 25.1657 5.7853 25.3305 5.62047C25.4953 5.45564 25.7115 5.37382 25.9791 5.37501H29.1145L39.4166 11.2875C39.8346 11.5264 40.1034 11.8847 40.2228 12.3625C40.3423 12.8403 40.2826 13.2882 40.0437 13.7063L36.4603 19.9771C36.2215 20.3952 35.8703 20.6567 35.4068 20.7618C34.9434 20.867 34.4883 20.7995 34.0416 20.5594L32.2499 19.6636V35.8333C32.2499 36.341 32.0779 36.7668 31.7339 37.1108C31.3899 37.4548 30.9647 37.6262 30.4583 37.625H12.5416C12.034 37.625 11.6087 37.453 11.2659 37.109C10.9231 36.765 10.7511 36.3398 10.7499 35.8333V19.6188Z"
    fill="#000" />
</svg>