<svg width="43" height="43" viewBox="0 0 43 43" xmlns="http://www.w3.org/2000/svg">
  <path
    d="M30.9722 21.5C30.2871 21.5 29.63 21.2278 29.1455 20.7434C28.6611 20.2589 28.3889 19.6018 28.3889 18.9167C28.3889 18.2315 28.6611 17.5744 29.1455 17.09C29.63 16.6055 30.2871 16.3333 30.9722 16.3333C31.6574 16.3333 32.3144 16.6055 32.7989 17.09C33.2834 17.5744 33.5556 18.2315 33.5556 18.9167C33.5556 19.6018 33.2834 20.2589 32.7989 20.7434C32.3144 21.2278 31.6574 21.5 30.9722 21.5ZM25.8056 14.6111C25.1204 14.6111 24.4633 14.3389 23.9789 13.8545C23.4944 13.37 23.2222 12.7129 23.2222 12.0278C23.2222 11.3426 23.4944 10.6856 23.9789 10.2011C24.4633 9.71662 25.1204 9.44444 25.8056 9.44444C26.4907 9.44444 27.1478 9.71662 27.6322 10.2011C28.1167 10.6856 28.3889 11.3426 28.3889 12.0278C28.3889 12.7129 28.1167 13.37 27.6322 13.8545C27.1478 14.3389 26.4907 14.6111 25.8056 14.6111ZM17.1944 14.6111C16.5093 14.6111 15.8522 14.3389 15.3678 13.8545C14.8833 13.37 14.6111 12.7129 14.6111 12.0278C14.6111 11.3426 14.8833 10.6856 15.3678 10.2011C15.8522 9.71662 16.5093 9.44444 17.1944 9.44444C17.8796 9.44444 18.5367 9.71662 19.0211 10.2011C19.5056 10.6856 19.7778 11.3426 19.7778 12.0278C19.7778 12.7129 19.5056 13.37 19.0211 13.8545C18.5367 14.3389 17.8796 14.6111 17.1944 14.6111ZM12.0278 21.5C11.3426 21.5 10.6856 21.2278 10.2011 20.7434C9.71662 20.2589 9.44444 19.6018 9.44444 18.9167C9.44444 18.2315 9.71662 17.5744 10.2011 17.09C10.6856 16.6055 11.3426 16.3333 12.0278 16.3333C12.7129 16.3333 13.37 16.6055 13.8545 17.09C14.3389 17.5744 14.6111 18.2315 14.6111 18.9167C14.6111 19.6018 14.3389 20.2589 13.8545 20.7434C13.37 21.2278 12.7129 21.5 12.0278 21.5ZM21.5 6C17.3891 6 13.4467 7.63303 10.5398 10.5398C7.63303 13.4467 6 17.3891 6 21.5C6 25.6109 7.63303 29.5533 10.5398 32.4602C13.4467 35.367 17.3891 37 21.5 37C22.1851 37 22.8422 36.7278 23.3267 36.2434C23.8112 35.7589 24.0833 35.1018 24.0833 34.4167C24.0833 33.745 23.825 33.1422 23.4117 32.6944C23.0156 32.2294 22.7572 31.6267 22.7572 30.9722C22.7572 30.2871 23.0294 29.63 23.5139 29.1455C23.9983 28.6611 24.6554 28.3889 25.3406 28.3889H28.3889C30.6727 28.3889 32.863 27.4816 34.4779 25.8668C36.0928 24.2519 37 22.0616 37 19.7778C37 12.1656 30.0594 6 21.5 6Z"
    fill="#000" />
</svg>