<svg width="43" height="43" viewBox="0 0 43 43" xmlns="http://www.w3.org/2000/svg">
  <path
    d="M37.4483 22.7677C37.5586 22.4104 37.6527 22.0484 37.7304 21.6827C37.7354 21.655 37.737 21.6289 37.7436 21.6012C37.7766 21.4413 37.7915 21.2765 37.8179 21.115C37.8591 20.8588 37.9086 20.6043 37.9334 20.3465C38.1298 18.4234 37.8906 16.4813 37.2334 14.661C36.5761 12.8407 35.5172 11.188 34.1335 9.8228C32.9089 8.60924 31.4539 7.64683 29.8522 6.99081C28.2504 6.33479 26.5334 5.99808 24.7996 6.00001V19.0526H12.4529L11.0372 15.7895H5V19.0526H8.86258L11.8787 26.0129C10.8213 26.4438 9.91689 27.1751 9.27986 28.1144C8.64283 29.0536 8.30181 30.1586 8.29994 31.2895C8.29994 34.4384 10.8904 37 14.0748 37C16.9771 37 19.3613 34.8643 19.7656 32.1053H23.2338C23.6381 34.8643 26.0223 37 28.9246 37C32.109 37 34.6994 34.4384 34.6994 31.2895C34.6994 30.2616 34.4008 29.3104 33.919 28.475C33.9883 28.4081 34.0659 28.3494 34.1352 28.2808C34.7292 27.6918 35.2703 27.0425 35.7472 26.3491C36.2224 25.6475 36.6316 24.9035 36.9616 24.1317C36.988 24.0714 37.0045 24.0077 37.0292 23.9474L37.0556 23.8788C37.2008 23.5199 37.3328 23.1593 37.4433 22.7889L37.4483 22.7677ZM14.0748 33.7368C12.7103 33.7368 11.5999 32.6388 11.5999 31.2895C11.5999 29.9402 12.7103 28.8421 14.0748 28.8421C15.4394 28.8421 16.5498 29.9402 16.5498 31.2895C16.5498 32.6388 15.4394 33.7368 14.0748 33.7368ZM28.9246 33.7368C27.56 33.7368 26.4496 32.6388 26.4496 31.2895C26.4496 29.9402 27.56 28.8421 28.9246 28.8421C30.2891 28.8421 31.3995 29.9402 31.3995 31.2895C31.3995 32.6388 30.2891 33.7368 28.9246 33.7368Z"
    fill="#000" />
</svg>