<svg width="43" height="43" viewBox="0 0 43 43" fill="none" xmlns="http://www.w3.org/2000/svg">
  <path
    d="M34.9805 25.0152C35.9764 23.7728 36.716 22.3452 37.1566 20.8151C37.5971 19.2849 37.7298 17.6826 37.5471 16.1008C36.5144 16.5611 35.3962 16.7983 34.2656 16.7969C32.5903 16.7997 30.956 16.2782 29.5921 15.3053L27.4313 17.4687L34.9805 25.0152ZM33.0804 26.918L24.6256 18.4631C24.5937 18.4341 24.5632 18.4036 24.5342 18.3717L16.082 9.91687C15.1333 11.0994 14.405 12.4646 13.9535 13.9481C13.0728 13.7458 12.1794 13.603 11.2794 13.5208C12.2842 9.89324 14.6347 6.78542 17.8516 4.83088C21.0685 2.87635 24.9098 2.22226 28.5923 3.00194C30.8513 3.4842 32.9665 4.48731 34.7693 5.93138C36.5722 7.37544 38.013 9.22055 38.9768 11.3197C39.4229 12.298 39.7669 13.3273 39.9954 14.405C40.7743 18.0871 40.1198 21.9277 38.1654 25.144C36.2109 28.3604 33.1035 30.7104 29.4765 31.7152C29.3935 30.8152 29.2499 29.9218 29.0465 29.0411C30.5131 28.595 31.8812 27.8735 33.0778 26.9153M36.9209 13.4052C36.4704 12.1425 35.8128 10.9636 34.9751 9.91687L31.5298 13.3622C32.3453 13.8441 33.2737 14.1018 34.2209 14.1093C35.1681 14.1169 36.1004 13.874 36.9236 13.4052M29.6351 11.4595L33.0778 8.0195C32.0329 7.18128 30.8558 6.52281 29.5948 6.07106C29.1459 6.85581 28.8906 7.76419 28.8906 8.73169C28.8906 9.72606 29.1594 10.6613 29.6351 11.4595ZM26.8992 5.45562C25.317 5.27248 23.7141 5.40502 22.1835 5.84557C20.6529 6.28613 19.2248 7.02594 17.9821 8.02219L25.5313 15.566L27.692 13.4052C26.7206 12.0417 26.2 10.4085 26.2031 8.73437C26.2031 7.56531 26.4531 6.45537 26.9019 5.45294M6.71875 18.8125C6.36237 18.8125 6.02058 18.9541 5.76858 19.2061C5.51657 19.4581 5.375 19.7999 5.375 20.1562V22.8437C5.375 26.764 6.93231 30.5236 9.70433 33.2957C12.4764 36.0677 16.236 37.625 20.1563 37.625H22.8438C23.2001 37.625 23.5419 37.4834 23.7939 37.2314C24.0459 36.9794 24.1875 36.6376 24.1875 36.2812V33.5937C24.1875 31.6526 23.8052 29.7306 23.0623 27.9372C22.3195 26.1439 21.2307 24.5144 19.8582 23.1418C18.4856 21.7693 16.8561 20.6805 15.0628 19.9377C13.2694 19.1948 11.3474 18.8125 9.40625 18.8125H6.71875ZM2.6875 20.1562C2.6875 19.0871 3.11222 18.0617 3.86823 17.3057C4.62423 16.5497 5.6496 16.125 6.71875 16.125H9.40625C14.0393 16.125 18.4825 17.9654 21.7585 21.2415C25.0346 24.5175 26.875 28.9607 26.875 33.5937V36.2812C26.875 37.3504 26.4503 38.3758 25.6943 39.1318C24.9383 39.8878 23.9129 40.3125 22.8438 40.3125H20.1563C15.5233 40.3125 11.08 38.472 7.80398 35.196C4.52795 31.92 2.6875 27.4767 2.6875 22.8437V20.1562ZM11.8143 25.2517C11.9391 25.1266 12.0874 25.0273 12.2506 24.9596C12.4139 24.8918 12.5889 24.857 12.7656 24.857C12.9424 24.857 13.1174 24.8918 13.2806 24.9596C13.4439 25.0273 13.5922 25.1266 13.717 25.2517L17.7483 29.283C17.8732 29.4079 17.9723 29.5563 18.0399 29.7195C18.1075 29.8827 18.1423 30.0577 18.1423 30.2344C18.1423 30.4111 18.1075 30.586 18.0399 30.7493C17.9723 30.9125 17.8732 31.0608 17.7483 31.1857C17.6233 31.3107 17.475 31.4098 17.3118 31.4774C17.1485 31.545 16.9736 31.5798 16.7969 31.5798C16.6202 31.5798 16.4452 31.545 16.282 31.4774C16.1188 31.4098 15.9704 31.3107 15.8455 31.1857L11.8143 27.1545C11.6891 27.0297 11.5898 26.8814 11.5221 26.7181C11.4543 26.5549 11.4195 26.3799 11.4195 26.2031C11.4195 26.0264 11.4543 25.8514 11.5221 25.6881C11.5898 25.5249 11.6891 25.3766 11.8143 25.2517Z"
    fill="#000" />
</svg>