<svg width="43" height="43" viewBox="0 0 43 43" xmlns="http://www.w3.org/2000/svg">
  <path
    d="M23.9679 13.7816L22.4276 7.57643L16.9706 8.43458C16.6112 8.48959 16.2775 8.24755 16.2188 7.88815L16.1382 7.37472C16.0832 7.01532 16.3252 6.6816 16.6846 6.62292L23.0951 5.61807C23.4912 5.55572 23.8726 5.80877 23.9679 6.19751L25.7429 13.3415C25.8309 13.6936 25.6146 14.0493 25.2625 14.1373L24.7601 14.262C24.4117 14.35 24.0523 14.1336 23.9679 13.7816Z"
    fill="#000" />
  <path
    d="M5.05884 30.6652C5.05884 32.3819 5.7408 34.0283 6.95469 35.2422C8.16859 36.4561 9.81499 37.1381 11.5317 37.1381C13.2484 37.1381 14.8948 36.4561 16.1087 35.2422C17.3226 34.0283 18.0045 32.3819 18.0045 30.6652C18.0045 28.9485 17.3226 27.3021 16.1087 26.0882C14.8948 24.8743 13.2484 24.1924 11.5317 24.1924C9.81499 24.1924 8.16859 24.8743 6.95469 26.0882C5.7408 27.3021 5.05884 28.9485 5.05884 30.6652Z"
    fill="#000" />
  <path
    d="M8.72624 25.2164C9.7751 25.7445 10.901 25.9609 11.9938 25.9022C11.8435 23.6982 10.5672 21.6261 8.45119 20.5589C7.40233 20.0308 6.27646 19.8144 5.18359 19.8731C5.33395 22.0809 6.61019 24.1492 8.72624 25.2164Z"
    fill="#000" />
  <path
    d="M34.1543 37.3904H22.4995C21.8394 37.3904 21.293 36.9393 21.2343 36.3525L19.0339 14.2861C19.0082 14.0147 19.2466 13.7764 19.5546 13.7764H37.1285C37.4366 13.7764 37.675 14.0147 37.6456 14.2861L35.3205 36.4369C35.2655 36.976 34.7594 37.3904 34.1543 37.3904Z"
    fill="#000" />
</svg>