<svg width="43" height="43" viewBox="0 0 43 43" xmlns="http://www.w3.org/2000/svg">
  <path
    d="M26.5455 6H16.4545C14.064 6.00046 11.7512 6.86968 9.92796 8.4529C8.10469 10.0361 6.8893 12.2306 6.49818 14.6456C7.54696 14.5449 8.60471 14.6695 9.60375 15.0115C10.6028 15.3534 11.5211 15.9052 12.3 16.6314C13.0788 17.3577 13.7011 18.2424 14.1269 19.229C14.5527 20.2156 14.7726 21.2824 14.7727 22.3611V24.9444H28.2273V22.3611C28.2274 21.2824 28.4473 20.2156 28.8731 19.229C29.2989 18.2424 29.9212 17.3577 30.7 16.6314C31.4789 15.9052 32.3972 15.3534 33.3962 15.0115C34.3953 14.6695 35.453 14.5449 36.5018 14.6456C36.1107 12.2306 34.8953 10.0361 33.072 8.4529C31.2488 6.86968 28.936 6.00046 26.5455 6ZM36.6364 18.1417C36.0254 18.014 35.3944 18.027 34.7889 18.1799C34.1835 18.3327 33.6189 18.6215 33.1359 19.0254C32.653 19.4293 32.2638 19.9382 31.9966 20.5151C31.7293 21.092 31.5908 21.7226 31.5909 22.3611V30.1111H28.2273V28.3889H14.7727V30.1111H11.4091V22.3611C11.4091 21.2192 10.9661 20.1241 10.1776 19.3166C9.3891 18.5092 8.31966 18.0556 7.20455 18.0556C6.08943 18.0556 5.01999 18.5092 4.23148 19.3166C3.44298 20.1241 3 21.2192 3 22.3611C3 23.3755 3.30609 24.1505 3.65591 25.0392C4.12682 26.2378 4.68182 27.6397 4.68182 30.1111V35.2778C4.68182 35.7345 4.85901 36.1726 5.17441 36.4956C5.48981 36.8186 5.91759 37 6.36364 37H36.6364C37.0824 37 37.5102 36.8186 37.8256 36.4956C38.141 36.1726 38.3182 35.7345 38.3182 35.2778V30.1111C38.3182 27.6414 38.8732 26.2361 39.3441 25.0392C39.6939 24.1505 40 23.3755 40 22.3611C40.0002 21.3685 39.6655 20.4064 39.0526 19.6375C38.4396 18.8686 37.5861 18.3402 36.6364 18.1417Z"
    fill="#000" />
</svg>