<svg width="39" height="33" viewBox="0 0 39 33" fill="none" xmlns="http://www.w3.org/2000/svg">
  <path
    d="M7.75 29.0417H18.5V27.25H7.75V29.0417ZM9.09375 12.9167H17.1563C17.5146 12.9167 17.8281 12.7823 18.0969 12.5135C18.3656 12.2448 18.5 11.9313 18.5 11.5729C18.5 11.2146 18.3656 10.901 18.0969 10.6323C17.8281 10.3635 17.5146 10.2292 17.1563 10.2292H9.09375C8.73542 10.2292 8.42188 10.3635 8.15313 10.6323C7.88438 10.901 7.75 11.2146 7.75 11.5729C7.75 11.9313 7.88438 12.2448 8.15313 12.5135C8.42188 12.7823 8.73542 12.9167 9.09375 12.9167ZM9.09375 8.4375H17.1563C17.5146 8.4375 17.8281 8.30313 18.0969 8.03438C18.3656 7.76563 18.5 7.45208 18.5 7.09375C18.5 6.73542 18.3656 6.42188 18.0969 6.15313C17.8281 5.88438 17.5146 5.75 17.1563 5.75H9.09375C8.73542 5.75 8.42188 5.88438 8.15313 6.15313C7.88438 6.42188 7.75 6.73542 7.75 7.09375C7.75 7.45208 7.88438 7.76563 8.15313 8.03438C8.42188 8.30313 8.73542 8.4375 9.09375 8.4375ZM25.6667 14.7083V11.125H29.25V7.54167H25.6667V3.95833H29.25C30.2354 3.95833 31.0793 4.3095 31.7816 5.01183C32.484 5.71417 32.8345 6.55744 32.8333 7.54167H36.4167C36.9243 7.54167 37.3501 7.71367 37.6941 8.05767C38.0381 8.40167 38.2095 8.82689 38.2083 9.33333C38.2083 9.84097 38.0363 10.2668 37.6923 10.6108C37.3483 10.9548 36.9231 11.1262 36.4167 11.125H32.8333C32.8333 12.1104 32.4828 12.9543 31.7816 13.6566C31.0805 14.359 30.2366 14.7095 29.25 14.7083H25.6667ZM18.5 23.6667H14.9167V14.7083H22.0833V3.95833H7.75C6.76459 3.95833 5.92131 4.3095 5.22017 5.01183C4.51903 5.71417 4.16786 6.55744 4.16667 7.54167V11.125C4.16667 12.1104 4.51784 12.9543 5.22017 13.6566C5.9225 14.359 6.76578 14.7095 7.75 14.7083H11.3333V23.6667H7.75V18.2917C5.77917 18.2917 4.09202 17.5899 2.68854 16.1865C1.28507 14.783 0.583336 13.0958 0.583336 11.125V7.54167C0.583336 5.57083 1.28507 3.88368 2.68854 2.48021C4.09202 1.07674 5.77917 0.375 7.75 0.375H22.0833C23.0688 0.375 23.9126 0.726167 24.615 1.4285C25.3173 2.13083 25.6679 2.97411 25.6667 3.95833V14.7083C25.6667 15.6938 25.3161 16.5376 24.615 17.24C23.9138 17.9423 23.0699 18.2929 22.0833 18.2917H18.5V23.6667ZM6.85417 32.625C6.10764 32.625 5.47339 32.364 4.95142 31.842C4.42945 31.3201 4.16786 30.6852 4.16667 29.9375V26.3542C4.16667 25.6076 4.42825 24.9734 4.95142 24.4514C5.47459 23.9294 6.10884 23.6679 6.85417 23.6667H19.3958C20.1424 23.6667 20.7772 23.9283 21.3004 24.4514C21.8235 24.9746 22.0845 25.6088 22.0833 26.3542V29.9375C22.0833 30.684 21.8224 31.3189 21.3004 31.842C20.7784 32.3652 20.1436 32.6262 19.3958 32.625H6.85417Z"
    fill="#000" />
</svg>