<svg width="43" height="43" viewBox="0 0 43 43" xmlns="http://www.w3.org/2000/svg">
  <path
    d="M38.22 5.89465C38.0513 5.70959 37.8124 5.60596 37.5621 5.60596H24.8068C24.5564 5.60596 24.3176 5.70959 24.1489 5.89465C23.9794 6.07882 23.8955 6.32561 23.9165 6.57568L24.021 7.80518H38.3479L38.4522 6.57568C38.4733 6.32561 38.3898 6.07889 38.22 5.89465Z"
    fill="#000" />
  <path d="M25.9539 30.5041H36.4167L38.2037 9.49707H24.1658L25.9539 30.5041Z" fill="#000" />
  <path
    d="M26.0532 35.1818C26.0532 36.4025 27.0426 37.3921 28.2632 37.3921H34.1072C35.328 37.3921 36.3173 36.4025 36.3173 35.1818V32.3589H26.0532V35.1818Z"
    fill="#000" />
  <path
    d="M22.5878 29.3672H11.325L6.79684 31.4208C6.78679 31.4251 6.77585 31.4275 6.76587 31.432V33.4845C6.76587 35.6429 8.51554 37.3916 10.6729 37.3916H19.4145C21.5718 37.3916 23.3215 35.6429 23.3215 33.4845V30.1009C23.3216 29.6956 22.9932 29.3672 22.5878 29.3672Z"
    fill="#000" />
  <path
    d="M19.2551 25.7727L14.707 27.8353H20.5883C20.7754 27.8353 20.9485 27.737 21.0467 27.5784C21.1436 27.4176 21.1512 27.2194 21.0666 27.052C20.7733 26.4811 20.2566 26.0581 19.6395 25.8819L19.2551 25.7727Z"
    fill="#000" />
  <path
    d="M19.9898 22.7264C20.0581 22.5436 20.0516 22.342 19.9711 22.1646L19.775 21.7349C19.4863 21.098 18.8584 20.7212 18.2017 20.7212C17.9637 20.7212 17.7213 20.7718 17.49 20.8755L5.55739 26.2863C4.68925 26.6797 4.30471 27.7034 4.69793 28.5715L4.89304 29.0023C4.97357 29.1785 5.12103 29.3176 5.30308 29.3858C5.38546 29.4166 5.47365 29.4321 5.56074 29.4321C5.66547 29.4321 5.76918 29.4101 5.86495 29.3671L19.6054 23.1364C19.7828 23.056 19.9204 22.9093 19.9898 22.7264Z"
    fill="#000" />
</svg>