<svg width="43" height="43" viewBox="0 0 43 43" xmlns="http://www.w3.org/2000/svg">
  <path
    d="M11.4666 14.3334V12.9001C11.4666 8.94407 14.6773 5.7334 18.6333 5.7334C22.5893 5.7334 25.8 8.94407 25.8 12.9001V29.5067L32.5796 22.727L31.5849 19.0147C31.5849 19.0089 31.582 19.0032 31.582 18.9975H31.5792C31.4559 18.5216 31.5792 17.9913 31.9547 17.6186C32.5137 17.0596 33.4224 17.0596 33.9814 17.6186L39.7148 23.3519C40.2738 23.9109 40.2738 24.8197 39.7148 25.3787C39.3421 25.7513 38.8175 25.8775 38.3416 25.7542C38.333 25.7513 38.3244 25.7485 38.313 25.7456L34.6064 24.7537L25.8 33.5601V34.4001C25.8 35.9825 24.5157 37.2667 22.9333 37.2667H14.3333C12.7509 37.2667 11.4666 35.9825 11.4666 34.4001V33.0699L4.96502 26.5683C2.17002 23.7705 2.17002 19.2297 4.96502 16.4318C6.36396 15.0329 8.19862 14.3334 10.0333 14.3334H11.4666ZM11.4666 17.2001H10.0333C8.93249 17.2001 7.83169 17.6215 6.99176 18.4585C5.31476 20.1384 5.31476 22.8617 6.99176 24.5416L11.4666 29.0136V17.2001ZM22.9333 14.3334V12.9001C22.9333 10.5265 21.0069 8.60006 18.6333 8.60006C16.2597 8.60006 14.3333 10.5265 14.3333 12.9001V14.3334H22.9333Z"
    fill="#000" />
</svg>