<svg width="33" height="33" viewBox="0 0 33 33" fill="none" xmlns="http://www.w3.org/2000/svg">
  <path
    d="M3.3 28.2857H10.89L1.023 12.0057C0.3795 11 0 9.88429 0 8.64286C0.00147157 7.11438 0.587818 5.63881 1.64927 4.49239C2.71073 3.34596 4.17452 2.60727 5.76662 2.4146C7.35871 2.22193 8.96997 2.5885 10.2987 3.44568C11.6275 4.30286 12.5827 5.59188 12.9855 7.07143H19.8V3.14286C19.8 1.41429 21.285 0 23.1 0V4.07L25.7235 1.57143H33V4.71429H27.0765L23.1 8.50143V8.78429L27.0765 12.5714H33V15.7143H25.7235L23.1 13.2157V17.2857C22.2248 17.2857 21.3854 16.9546 20.7665 16.3652C20.1477 15.7758 19.8 14.9764 19.8 14.1429V10.2143H12.9855C12.8205 10.8271 12.5565 11.4086 12.2265 11.9429L22.1265 28.2857H29.7C30.5752 28.2857 31.4146 28.6168 32.0335 29.2062C32.6523 29.7956 33 30.595 33 31.4286V33H0V31.4286C0 29.7 1.485 28.2857 3.3 28.2857ZM9.7515 14.1429C8.8275 14.6457 7.755 14.9286 6.6 14.9286L14.7015 28.2857H18.315L9.7515 14.1429ZM6.6 5.5C5.72479 5.5 4.88542 5.83112 4.26655 6.42052C3.64768 7.00992 3.3 7.80932 3.3 8.64286C3.3 10.3871 4.7685 11.7857 6.6 11.7857C8.4315 11.7857 9.9 10.3871 9.9 8.64286C9.9 7.80932 9.55232 7.00992 8.93345 6.42052C8.31458 5.83112 7.47521 5.5 6.6 5.5Z"
    fill="#000" />
</svg>