<svg width="33" height="33" viewBox="0 0 33 33" fill="none" xmlns="http://www.w3.org/2000/svg">
  <path
    d="M9.75 27.75V20.25L15.75 24L9.75 27.75ZM18 13.5C16.75 13.5 15.6875 13.0625 14.8125 12.1875C13.9375 11.3125 13.5 10.25 13.5 9C13.5 7.75 13.9375 6.6875 14.8125 5.8125C15.6875 4.9375 16.75 4.5 18 4.5H19.875V6.75H18C17.375 6.75 16.844 6.969 16.407 7.407C15.97 7.845 15.751 8.376 15.75 9C15.75 9.625 15.969 10.1565 16.407 10.5945C16.845 11.0325 17.376 11.251 18 11.25H19.875V13.5H18ZM22.125 13.5V11.25H24C24.625 11.25 25.1565 11.0315 25.5945 10.5945C26.0325 10.1575 26.251 9.626 26.25 9C26.25 8.375 26.0315 7.844 25.5945 7.407C25.1575 6.97 24.626 6.751 24 6.75H22.125V4.5H24C25.25 4.5 26.3125 4.9375 27.1875 5.8125C28.0625 6.6875 28.5 7.75 28.5 9C28.5 10.25 28.0625 11.3125 27.1875 12.1875C26.3125 13.0625 25.25 13.5 24 13.5H22.125ZM18 10.125V7.875H24V10.125H18ZM22.65 19.5V16.5H30V3H12V16.5H9V3C9 2.175 9.294 1.469 9.882 0.882C10.47 0.295 11.176 0.001 12 0H30C30.825 0 31.5315 0.294 32.1195 0.882C32.7075 1.47 33.001 2.176 33 3V16.5C33 17.325 32.7065 18.0315 32.1195 18.6195C31.5325 19.2075 30.826 19.501 30 19.5H22.65ZM3 33C2.175 33 1.469 32.7065 0.882 32.1195C0.295 31.5325 0.001 30.826 0 30V18C0 17.175 0.294 16.469 0.882 15.882C1.47 15.295 2.176 15.001 3 15H21C21.825 15 22.5315 15.294 23.1195 15.882C23.7075 16.47 24.001 17.176 24 18V30C24 30.825 23.7065 31.5315 23.1195 32.1195C22.5325 32.7075 21.826 33.001 21 33H3ZM3 30H21V18H3V30Z"
    fill="#000" />
</svg>