<svg width="43" height="43" viewBox="0 0 50 45" fill="none" xmlns="http://www.w3.org/2000/svg">


  <path
    d="M13.3915 36.6757L1.05463 22.2962L13.3777 7.90632L41.177 7.89302L41.1894 36.6636L13.3915 36.6757ZM15.0428 33.0792L37.5909 33.0684L37.5828 11.4904L15.0335 11.5025L5.79082 22.2953L15.0428 33.0792ZM16.0095 22.2916C16.0055 22.5304 16.049 22.7675 16.1376 22.9892C16.2262 23.2109 16.3581 23.4128 16.5255 23.583C16.6929 23.7532 16.8926 23.8884 17.1128 23.9806C17.333 24.0728 17.5694 24.1203 17.8082 24.1201C18.0469 24.12 18.2833 24.0724 18.5034 23.9799C18.7236 23.8875 18.9231 23.7521 19.0904 23.5818C19.2577 23.4114 19.3894 23.2094 19.4778 22.9876C19.5662 22.7658 19.6095 22.5286 19.6052 22.2899C19.5968 21.8185 19.4036 21.3693 19.0672 21.039C18.7308 20.7086 18.2781 20.5237 17.8066 20.5239C17.3351 20.5241 16.8826 20.7095 16.5465 21.0402C16.2104 21.3708 16.0175 21.8202 16.0095 22.2916ZM17.8097 27.6843C17.0977 27.6905 16.3914 27.5557 15.7317 27.2876C15.072 27.0195 14.472 26.6235 13.9661 26.1223C13.4603 25.6211 13.0587 25.0248 12.7845 24.3676C12.5103 23.7104 12.3689 23.0055 12.3685 22.2934C12.3681 21.5813 12.5087 20.8762 12.7822 20.2187C13.0557 19.5612 13.4566 18.9643 13.9619 18.4626C14.4672 17.9608 15.0668 17.564 15.7262 17.2951C16.3856 17.0263 17.0917 16.8906 17.8038 16.896C19.2268 16.9067 20.5879 17.4793 21.5906 18.4891C22.5933 19.4988 23.1564 20.8639 23.1572 22.287C23.158 23.71 22.5964 25.0758 21.5948 26.0867C20.5932 27.0976 19.2327 27.6719 17.8097 27.6843Z"
    fill="#000" />

</svg>