<svg width="43" height="43" viewBox="0 0 43 43" fill="none" xmlns="http://www.w3.org/2000/svg">
  <path
    d="M25.0833 32.8233C23.1292 31.8788 21.4509 30.4474 20.21 28.6666H5.37501V7.16665H37.625V11.2158C39.0755 12.2353 40.2962 13.5476 41.2083 15.0679V7.16665C41.2083 6.21629 40.8308 5.30485 40.1588 4.63285C39.4868 3.96084 38.5754 3.58331 37.625 3.58331H5.37501C4.42465 3.58331 3.51321 3.96084 2.84121 4.63285C2.1692 5.30485 1.79167 6.21629 1.79167 7.16665V28.6666C1.79167 29.617 2.1692 30.5284 2.84121 31.2004C3.51321 31.8724 4.42465 32.25 5.37501 32.25H17.9167V35.8333H14.3333V39.4166H28.6667V35.8333H25.0833V32.8233Z"
    fill="#000" />
  <path
    d="M30.4583 10.75C28.3322 10.75 26.2538 11.3805 24.486 12.5617C22.7181 13.7429 21.3403 15.4218 20.5266 17.3862C19.713 19.3505 19.5001 21.5119 19.9149 23.5972C20.3297 25.6825 21.3535 27.598 22.8569 29.1014C24.3603 30.6048 26.2758 31.6287 28.3611 32.0434C30.4464 32.4582 32.6079 32.2453 34.5722 31.4317C36.5365 30.6181 38.2154 29.2402 39.3966 27.4724C40.5779 25.7046 41.2083 23.6261 41.2083 21.5C41.2083 18.6489 40.0757 15.9146 38.0597 13.8986C36.0437 11.8826 33.3094 10.75 30.4583 10.75ZM30.4583 24.1875C29.9268 24.1875 29.4072 24.0299 28.9652 23.7346C28.5233 23.4393 28.1788 23.0195 27.9754 22.5285C27.772 22.0374 27.7188 21.497 27.8225 20.9757C27.9262 20.4544 28.1821 19.9755 28.558 19.5997C28.9338 19.2238 29.4127 18.9678 29.934 18.8641C30.4554 18.7604 30.9957 18.8137 31.4868 19.0171C31.9779 19.2205 32.3976 19.5649 32.6929 20.0069C32.9882 20.4489 33.1458 20.9685 33.1458 21.5C33.1458 22.2128 32.8627 22.8963 32.3587 23.4004C31.8547 23.9044 31.1711 24.1875 30.4583 24.1875Z"
    fill="#000" />
</svg>