<svg width="43" height="43" viewBox="0 0 43 43" xmlns="http://www.w3.org/2000/svg">
  <path
    d="M35.3095 20.7619H33.0952V14.8571C33.0952 14.0741 32.7842 13.3232 32.2305 12.7695C31.6768 12.2158 30.9259 11.9048 30.1429 11.9048H24.2381V9.69048C24.2381 8.7117 23.8493 7.77301 23.1572 7.08092C22.4651 6.38882 21.5264 6 20.5476 6C19.5688 6 18.6302 6.38882 17.9381 7.08092C17.246 7.77301 16.8571 8.7117 16.8571 9.69048V11.9048H10.9524C10.1694 11.9048 9.41841 12.2158 8.86473 12.7695C8.31105 13.3232 8 14.0741 8 14.8571V20.4667H10.2143C12.4286 20.4667 14.2 22.2381 14.2 24.4524C14.2 26.6667 12.4286 28.4381 10.2143 28.4381H8V34.0476C8 34.8306 8.31105 35.5816 8.86473 36.1353C9.41841 36.6889 10.1694 37 10.9524 37H16.5619V34.7857C16.5619 32.5714 18.3333 30.8 20.5476 30.8C22.7619 30.8 24.5333 32.5714 24.5333 34.7857V37H30.1429C30.9259 37 31.6768 36.6889 32.2305 36.1353C32.7842 35.5816 33.0952 34.8306 33.0952 34.0476V28.1429H35.3095C36.2883 28.1429 37.227 27.754 37.9191 27.0619C38.6112 26.3698 39 25.4312 39 24.4524C39 23.4736 38.6112 22.5349 37.9191 21.8428C37.227 21.1507 36.2883 20.7619 35.3095 20.7619Z"
    fill="#000" />
</svg>