<svg width="43" height="43" viewBox="0 0 43 43" fill="none" xmlns="http://www.w3.org/2000/svg">
  <path
    d="M23.9883 3.56723C20.6623 3.56723 17.8574 5.96188 17.8574 9.02621C17.8574 10.574 18.5736 11.9505 19.7106 12.9343L20.4222 11.5342C19.7608 10.8454 19.3691 9.9665 19.3691 9.02621C19.3691 6.89553 21.3771 5.07895 23.9882 5.07895C26.5993 5.07895 28.6073 6.89553 28.6073 9.02621C28.6073 10.4878 27.6623 11.8016 26.2259 12.4825L25.5975 14.2929C25.7562 14.2545 25.9135 14.2102 26.0689 14.1602L26.838 15.505C25.9708 16.115 25.1315 16.8711 24.2317 17.8122L31.0638 32.8784C35.2853 33.073 39.3584 30.8346 41.4572 27.1666L32.4012 13.3229C30.7075 13.6611 29.345 14.0832 28.1285 14.7168L27.449 13.529C29.0495 12.5535 30.1191 10.9179 30.1191 9.0263C30.1191 5.96196 27.3142 3.56731 23.9883 3.56731V3.56723ZM13.6863 4.06669C13.4629 4.0692 13.2282 4.10616 13.0016 4.1799C12.4834 4.3482 12.045 4.69506 11.8544 5.06929L11.8302 5.11716L6.37929 12.8687C6.19998 13.2426 6.17923 13.788 6.3409 14.2939C6.50635 14.811 6.84859 15.2433 7.19771 15.4211L19.2648 21.5654C19.6067 21.7397 20.1542 21.7674 20.6629 21.6013C21.1622 21.4383 21.5864 21.107 21.7886 20.7201L23.9184 14.4834C23.9226 14.4834 23.9268 14.4837 23.931 14.4838L24.4624 12.9527C24.4552 12.9534 24.4477 12.9536 24.4405 12.9542L24.8525 11.7478L24.8768 11.7001C25.0675 11.3259 25.0902 10.7662 24.923 10.2487C24.7559 9.73118 24.4107 9.29505 24.0467 9.10969L21.3527 7.73798C20.8032 8.4248 20.6346 9.40658 21.3236 10.3306L21.5008 10.6272L22.3649 11.0807L21.6715 12.4424L21.6592 12.4366L20.9774 13.7778C20.9812 13.7797 20.985 13.7814 20.9888 13.7833L20.4594 14.8226L11.9275 10.4783L13.4901 7.40968L13.8329 6.73613L16.4242 8.05569C16.5548 7.2318 16.8375 6.43916 17.2921 5.6702L14.454 4.22525C14.2428 4.11775 13.9735 4.06358 13.6863 4.06669ZM31.9888 15.1006L34.0113 18.7807L27.9759 22.0973L26.3173 19.0797L25.9534 18.4173L31.9888 15.1006ZM31.392 17.1535L28.0064 19.0141L28.5727 20.0445L31.9582 18.184L31.392 17.1535ZM9.61621 18.3491L7.86346 21.7918L13.701 24.7642L15.454 21.3215L9.61621 18.3491ZM34.5775 19.8112L36.5999 23.4912L30.5645 26.8077L28.9062 23.7902L28.5423 23.1278L34.5777 19.8111L34.5775 19.8112ZM33.9807 21.864L30.595 23.7246L31.1614 24.7551L34.5471 22.8945L33.9807 21.864ZM8.37492 23.7486H8.37475L1.54296 37.1656L2.0572 38.747L8.54617 26.0035L9.89311 26.6895L3.40431 39.4328L5.28346 38.8219L6.37257 38.4677L5.78585 36.6573L7.59118 36.072L7.00362 34.2656L8.81097 33.6779L8.35997 32.2918L11.8176 25.5015L8.37492 23.7486Z"
    fill="#000" />
</svg>